<?xml version="1.0" encoding="utf-8"?>
<!-- Generator: Adobe Illustrator 21.0.2, SVG Export Plug-In . SVG Version: 6.00 Build 0)  -->
<svg version="1.1" id="Layer_1" xmlns="http://www.w3.org/2000/svg" xmlns:xlink="http://www.w3.org/1999/xlink" x="0px" y="0px"
	 viewBox="0 0 551.5 251.8" style="enable-background:new 0 0 551.5 251.8;" xml:space="preserve">
<style type="text/css">
	.st0{display:none;}
	.st1{display:inline;fill:#007580;}
	.st2{display:inline;fill:#FFB819;}
	.st3{fill:#007580;}
	.st4{fill:#FFB819;}
</style>
<g class="st0">
	<path class="st1" d="M414.4,75.7c-19.6,0-40.2,9-40.2,9v86.8c0,0.7,0.6,1.3,1.3,1.3h15.7c0.7,0,1.3-0.6,1.3-1.3V91.7
		c0,0,4.8-6,22-6c7.6,0,14.4,2.3,20.4,6.6c0.2,0.2,0.5,0.3,0.8,0.3h0.1c0.7,0,1.3-0.6,1.3-1.3v-11C429.5,76.7,423.5,75.7,414.4,75.7
		"/>
	<path class="st1" d="M185.3,75.8c-25.4,0-50.8,16.8-50.8,49.6c0,25.9,19.9,50,49.9,50c30.7,0,38-12.7,38-12.7V152c0-0.6-0.5-1-1-1
		c-0.3,0-0.5,0.1-0.7,0.3c-13.6,12.5-25.6,13.6-34.8,13.6c-8.1,0-29.3-6.2-31.8-29.9c8.7,0.5,23.6,1.3,31.4,1.3
		c28.2,0,40.9-7.7,40.9-27.5C226.2,95,216.5,75.8,185.3,75.8 M153.8,125.3c1.5-28.9,16.6-39.4,31.5-39.4c17.2,0,22.9,12.2,22.9,22.8
		c0,12.5-4.7,17.9-22.9,17.9C177.8,126.6,163.9,125.9,153.8,125.3"/>
	<path class="st1" d="M499.7,75.7c-29.3,0-49.9,22.3-49.9,49.7s21.4,49.7,49.9,49.7c28.6,0,49.9-22.3,49.9-49.7S530,75.7,499.7,75.7
		 M499.7,164.8c-18.7,0-31-16.8-31-39.3s13-39.3,31-39.3c17.6,0,31.8,16.8,31.8,39.3C531.5,149.4,517.2,164.8,499.7,164.8"/>
	<path class="st1" d="M296,75.7c-17.3,0-40.2,10.8-40.2,10.8v124.7c0,0.7,0.6,1.3,1.3,1.3h15.7c0.7,0,1.3-0.6,1.3-1.3V93.6
		c0,0,5.9-7.2,22-7.2c16.8,0,35.8,13.8,35.8,38.7c0,21-10.6,40.7-29.6,40.7c-9.3,0-15.1-3.4-20.2-7.1c-0.2-0.2-0.5-0.3-0.8-0.3
		c-0.7,0-1.3,0.5-1.3,1.3v9.2c4.8,3.8,11.9,7.1,22.2,7.1c20.7,0,47.2-12.8,47.2-50.4C349.4,89.8,321.6,75.7,296,75.7"/>
	<path class="st2" d="M79.6,48.5c1.9,3.5,2.4,5.7,2.4,5.7s4.4,1.6,7.2,3c1,0.5,1.9,1,2.5,1.4c0.1,0.1,0.1,0.2,0.2,0.3
		c-4-5.5-9.1-10.1-14.9-13.5c0.2,0.1,0.5,0.3,0.7,0.4C78.3,46.5,79,47.5,79.6,48.5"/>
	<path class="st2" d="M95.9,65.4c0.7,1.4,1.4,2.8,1.9,4.2c-1.2-0.6-2.7-1.3-4.5-2c-3.9-1.5-8.4-2.3-8.4-2.3s1.3,6.7,1.9,12.5
		c0.6,5.7,0.9,12.2,0.9,12.2l-13.2-0.5c0,0-0.3-8.5-0.7-13.4c-0.4-4.8-1.3-12.9-1.3-12.9s-5.4-0.6-10.7-1C56.5,61.9,50,61.6,50,61.6
		l-0.6-12.3c0,0,5.1,0.1,11.2,0.7c6.2,0.7,9.9,1.4,9.9,1.4s-0.5-2.3-1.7-6.1c-0.6-2-1.5-3.6-2.2-4.8l0,0c-4.7-1.5-9.7-2.3-14.9-2.3
		C24.2,38.4,2,60.6,2,88.1c0,27.4,22.3,49.7,49.7,49.7c27.5,0,49.7-22.3,49.7-49.7C101.4,79.9,99.4,72.2,95.9,65.4"/>
</g>
<g>
	<g>
		<path class="st3" d="M416.8,72.2c-19.7,0-40.5,9-40.5,9v87.3c0,0.7,0.6,1.3,1.3,1.3h15.8c0.7,0,1.3-0.6,1.3-1.3V88.3
			c0,0,4.8-6,22.1-6c7.7,0,14.5,2.3,20.5,6.7c0.2,0.2,0.5,0.3,0.8,0.3h0.1c0.7,0,1.3-0.6,1.3-1.3V76.8
			C432.1,73.2,425.9,72.2,416.8,72.2"/>
		<path class="st3" d="M186.3,72.3c-25.6,0-51.2,16.9-51.2,49.9c0,26.1,20,50.3,50.2,50.3c30.9,0,38.2-12.8,38.2-12.8v-10.8
			c0-0.6-0.5-1-1-1c-0.3,0-0.5,0.1-0.7,0.3c-13.7,12.5-25.7,13.7-35,13.7c-8.1,0-29.5-6.3-32-30c8.8,0.5,23.7,1.3,31.6,1.3
			c28.4,0,41.1-7.8,41.1-27.7C227.5,91.6,217.8,72.3,186.3,72.3 M154.6,122.1c1.5-29.1,16.7-39.6,31.7-39.6c17.3,0,23,12.3,23,23
			c0,12.6-4.7,18-23,18C178.8,123.4,164.8,122.6,154.6,122.1"/>
		<path class="st3" d="M500.3,72.2c-29.5,0-50.2,22.4-50.2,50s21.6,50,50.2,50c28.7,0,50.2-22.4,50.2-50S530.9,72.2,500.3,72.2
			 M500.3,161.8c-18.8,0-31.2-16.9-31.2-39.6c0-22.6,13.1-39.6,31.2-39.6c17.7,0,32,16.9,32,39.6C532.4,146.4,518,161.8,500.3,161.8
			"/>
		<path class="st3" d="M297,72.2c-17.4,0-40.5,10.9-40.5,10.9v125.4c0,0.7,0.6,1.3,1.3,1.3h15.8c0.7,0,1.3-0.6,1.3-1.3V90.1
			c0,0,5.9-7.2,22.1-7.2c16.9,0,36,13.9,36,38.9c0,21.2-10.7,41-29.8,41c-8,0-13.4-2.5-18-5.6c-1-0.6-2.2,0-2.2,1.2l0,9
			c4.7,3.1,11.3,5.6,20.3,5.6c20.9,0,47.4-12.8,47.4-50.7C350.6,86.4,322.8,72.2,297,72.2z"/>
	</g>
	<g>
		<path class="st4" d="M98.4,66C98.4,66,98.4,66,98.4,66L98.4,66C98.4,66,98.4,66,98.4,66z"/>
		<g>
			<path class="st4" d="M98.4,66L98.4,66c-1.2-0.6-2.7-1.3-4.5-2c-4-1.5-8.5-2.3-8.5-2.3s1.3,6.8,1.9,12.5
				c0.6,5.8,0.9,12.3,0.9,12.3L75,86.1c0,0-0.3-8.6-0.7-13.4c-0.4-4.8-1.3-13-1.3-13s-5.4-0.6-10.8-1c-5.4-0.4-12-0.7-12-0.7
				l-0.6-12.3c0,0,5.1,0.1,11.3,0.7c6.2,0.7,10,1.4,10,1.4s-0.5-2.3-1.7-6.1c-0.6-2-1.5-3.7-2.2-4.8c-4.7-1.5-9.8-2.3-15-2.3
				c-27.6,0-50,22.4-50,50c0,27.6,22.4,50,50,50c27.6,0,50-22.4,50-50C102,78.1,100.7,71.8,98.4,66z"/>
			<path class="st4" d="M92.2,54.9L92.2,54.9c-3.8-5.1-8.6-9.5-14.1-12.9c0.7,0.8,1.3,1.7,1.9,2.8c1.9,3.5,2.4,5.7,2.4,5.7
				s4.4,1.6,7.3,3C90.7,54,91.5,54.5,92.2,54.9L92.2,54.9z"/>
		</g>
	</g>
</g>
</svg>
